<?xml version="1.0" standalone="no"?>
<!DOCTYPE svg PUBLIC "-//W3C//DTD SVG 20010904//EN"
 "http://www.w3.org/TR/2001/REC-SVG-20010904/DTD/svg10.dtd">
<svg version="1.0" xmlns="http://www.w3.org/2000/svg"
 width="260.000000pt" height="260.000000pt" viewBox="0 0 260.000000 260.000000"
 preserveAspectRatio="xMidYMid meet">
<metadata>
Created by potrace 1.11, written by Peter Selinger 2001-2013
</metadata>
<g transform="translate(0.000000,260.000000) scale(0.100000,-0.100000)"
fill="#000000" stroke="none">
<path d="M1205 2561 c3 -5 -21 -13 -52 -16 -110 -13 -239 -43 -294 -68 -249
-116 -302 -152 -448 -299 -113 -115 -190 -224 -237 -336 -16 -37 -31 -69 -34
-72 -12 -11 -50 -143 -66 -226 -23 -119 -23 -378 -1 -489 40 -200 125 -381
253 -542 77 -97 215 -222 292 -264 20 -12 46 -29 57 -39 11 -9 50 -29 87 -44
37 -15 82 -35 100 -45 34 -20 180 -54 281 -66 31 -3 55 -11 52 -16 -4 -5 6 -9
20 -9 15 0 24 4 20 10 -4 6 23 10 75 10 52 0 79 -4 75 -10 -3 -5 3 -10 15 -10
12 0 18 4 15 10 -3 5 -3 10 2 10 4 0 53 7 108 15 107 16 201 41 225 60 8 7 52
26 97 44 45 18 87 39 93 46 7 8 32 26 58 41 52 31 87 60 187 159 118 117 198
229 247 347 17 40 34 78 38 83 20 28 70 237 70 296 0 16 5 29 10 29 6 0 10 50
10 130 0 80 -4 130 -10 130 -5 0 -10 13 -10 29 0 61 -50 270 -71 297 -5 5 -21
41 -37 80 -44 109 -141 245 -248 349 -110 107 -140 132 -190 161 -27 16 -57
35 -66 44 -9 8 -45 26 -80 39 -35 14 -81 35 -103 47 -39 22 -184 56 -298 69
-31 3 -55 11 -52 16 4 5 -10 9 -30 9 -22 0 -34 -4 -30 -10 4 -6 -12 -10 -40
-10 -28 0 -44 4 -40 10 4 6 -7 10 -25 10 -17 0 -29 -4 -25 -9z m373 -120 c52
-11 122 -33 155 -49 34 -16 90 -42 125 -57 34 -15 62 -31 62 -35 0 -5 21 -20
48 -36 26 -15 62 -41 81 -58 64 -58 180 -181 181 -192 0 -5 13 -23 28 -40 16
-16 44 -60 63 -99 18 -38 37 -72 41 -73 5 -2 6 -8 2 -13 -3 -5 -1 -9 4 -9 19
0 62 -146 82 -274 35 -228 -8 -594 -78 -678 -9 -10 -11 -18 -6 -18 5 0 4 -4
-2 -8 -5 -4 -26 -42 -47 -84 -20 -43 -40 -78 -45 -78 -4 0 -18 -17 -29 -38
-37 -64 -194 -217 -275 -268 -27 -16 -48 -32 -48 -35 0 -3 -33 -21 -72 -38
-40 -18 -85 -39 -100 -47 -14 -8 -33 -14 -41 -14 -9 0 -17 -4 -19 -9 -1 -6
-50 -20 -108 -32 -86 -19 -136 -23 -280 -23 -205 0 -322 20 -441 77 -41 19
-98 45 -126 58 -29 12 -53 26 -53 30 0 4 -21 19 -47 35 -26 15 -56 37 -67 48
-12 12 -42 38 -69 59 -26 21 -47 43 -47 48 0 6 -14 22 -30 36 -17 14 -37 38
-45 54 -9 16 -24 36 -34 46 -10 10 -35 50 -55 88 -20 39 -39 75 -44 80 -25 33
-82 217 -82 264 0 12 -4 21 -8 21 -4 0 -6 15 -4 34 2 18 -1 37 -7 40 -15 10
-15 282 0 292 6 3 9 22 7 40 -2 19 0 34 4 34 4 0 8 9 8 21 0 46 61 241 80 259
3 3 21 35 40 72 18 37 47 82 62 100 16 18 35 44 43 58 19 37 184 192 250 237
78 52 86 56 196 108 95 44 185 68 317 85 100 13 324 3 430 -19z"/>
<path d="M1169 2145 c-93 -105 -173 -207 -217 -278 -9 -16 -32 -51 -50 -79
-39 -61 -118 -242 -138 -318 -30 -116 -10 -386 32 -428 8 -7 14 -18 14 -23 0
-34 116 -174 210 -253 45 -37 235 -130 249 -121 7 4 11 56 11 143 l0 137 -165
165 c-91 90 -165 170 -165 177 0 7 12 13 26 13 21 0 55 -29 159 -135 72 -74
135 -132 138 -128 4 3 7 58 7 120 l0 114 -110 110 c-110 110 -133 149 -89 149
14 0 51 -30 100 -80 43 -44 83 -80 89 -80 6 0 10 38 10 94 l0 94 -47 42 c-54
47 -75 100 -41 100 11 0 29 -11 40 -25 36 -46 47 -33 50 57 3 70 6 83 21 86
15 3 17 -6 17 -82 0 -95 8 -105 50 -61 30 32 60 33 60 2 0 -14 -20 -43 -55
-77 l-55 -54 0 -88 c0 -60 4 -88 12 -88 6 0 46 36 89 80 48 50 85 80 98 80 46
0 22 -41 -89 -151 l-110 -109 0 -115 c0 -62 4 -116 9 -119 5 -4 69 55 142 129
108 109 139 135 161 135 15 0 28 -5 28 -11 0 -6 -77 -88 -170 -182 l-171 -171
3 -136 3 -135 25 3 c14 1 66 23 115 48 81 42 108 61 186 130 52 45 98 107 130
171 19 38 37 70 40 73 16 12 33 134 33 230 0 99 -16 212 -34 235 -4 6 -25 53
-46 105 -20 52 -40 97 -44 100 -7 6 -70 108 -70 115 0 9 -163 222 -219 284
-138 158 -137 158 -272 6z"/>
<path d="M1075 619 c-8 -25 32 -66 74 -76 14 -3 30 -8 35 -11 28 -16 203 -16
231 0 6 3 24 8 40 12 17 4 42 19 57 33 22 21 25 30 17 44 -13 24 -23 24 -78
-3 -39 -20 -62 -23 -151 -23 -89 0 -112 3 -151 23 -56 27 -66 28 -74 1z"/>
<path d="M1080 520 c-16 -30 3 -56 52 -72 23 -8 45 -21 49 -29 4 -8 12 -26 19
-41 16 -34 67 -52 127 -45 51 5 79 27 88 69 4 16 14 32 23 34 63 19 82 34 82
63 0 41 -12 45 -57 19 -34 -21 -51 -23 -158 -23 -106 0 -124 3 -158 23 -47 27
-53 27 -67 2z"/>
</g>
</svg>
